<svg width="80" height="22" viewBox="0 0 80 22" fill="none" xmlns="http://www.w3.org/2000/svg">
<path d="M34.2741 5.33079V6.72772C35.5017 6.74889 36.4701 6.94996 37.1791 7.33095C37.8881 7.71193 38.3908 8.2199 38.6872 8.85487C38.9835 9.47926 39.1316 10.1777 39.1316 10.9503C39.1316 11.4582 39.0523 11.9662 38.8935 12.4742C38.7454 12.9716 38.4861 13.4266 38.1157 13.8394C37.7453 14.2415 37.2479 14.5696 36.6235 14.8236C35.9991 15.0776 35.216 15.2151 34.2741 15.2363V16.9825H32.8613V15.2363C31.8983 15.2151 31.0993 15.0776 30.4643 14.8236C29.8399 14.559 29.3478 14.2204 28.988 13.8076C28.6282 13.3843 28.3742 12.924 28.226 12.4266C28.0779 11.9292 28.0038 11.4371 28.0038 10.9503C28.0038 10.3894 28.0832 9.86024 28.2419 9.36285C28.4112 8.85487 28.6811 8.41039 29.0515 8.02941C29.4325 7.63785 29.9352 7.32565 30.5595 7.09283C31.1839 6.86001 31.9512 6.73831 32.8613 6.72772V5.33079H34.2741ZM32.8613 7.93417C32.0147 7.95533 31.3374 8.09291 30.8294 8.3469C30.332 8.60088 29.9775 8.95012 29.7658 9.39459C29.5542 9.82849 29.4484 10.3418 29.4484 10.9344C29.4484 11.5588 29.5648 12.1038 29.7976 12.5694C30.041 13.0245 30.4114 13.379 30.9088 13.633C31.4168 13.887 32.0676 14.0299 32.8613 14.0616V7.93417ZM34.2741 14.0616C35.089 14.0299 35.7451 13.8817 36.2425 13.6171C36.7505 13.3526 37.1156 12.9928 37.3378 12.5377C37.5707 12.072 37.6871 11.5376 37.6871 10.9344C37.6871 10.3312 37.5812 9.81262 37.3696 9.37872C37.1579 8.93424 36.8034 8.5903 36.306 8.3469C35.8086 8.09291 35.1313 7.95533 34.2741 7.93417V14.0616ZM42.6987 8.31515V16.8237H41.3018V8.31515H42.6987ZM42.0161 5.12443C42.2278 5.12443 42.413 5.19851 42.5717 5.34667C42.7411 5.48424 42.8257 5.70648 42.8257 6.01338C42.8257 6.3097 42.7411 6.53194 42.5717 6.6801C42.413 6.82826 42.2278 6.90234 42.0161 6.90234C41.7833 6.90234 41.5875 6.82826 41.4288 6.6801C41.2701 6.53194 41.1907 6.3097 41.1907 6.01338C41.1907 5.70648 41.2701 5.48424 41.4288 5.34667C41.5875 5.19851 41.7833 5.12443 42.0161 5.12443ZM51.8711 16.8237H50.4583V9.47397H47.9501C47.8443 10.818 47.712 11.9662 47.5533 12.9187C47.3945 13.8605 47.1935 14.6278 46.9501 15.2204C46.7067 15.8131 46.4156 16.247 46.077 16.5221C45.7383 16.7973 45.3415 16.9349 44.8864 16.9349C44.7488 16.9349 44.6113 16.9243 44.4737 16.9031C44.3467 16.8925 44.2409 16.8661 44.1562 16.8237V15.776C44.2197 15.7972 44.2885 15.8131 44.3626 15.8237C44.4366 15.8342 44.5107 15.8395 44.5848 15.8395C44.8176 15.8395 45.0293 15.7443 45.2198 15.5538C45.4103 15.3633 45.5796 15.0723 45.7277 14.6807C45.8865 14.2891 46.0294 13.797 46.1563 13.2044C46.2833 12.6012 46.3945 11.8921 46.4897 11.0773C46.5849 10.2624 46.6696 9.34168 46.7437 8.31515H51.8711V16.8237ZM58.4926 11.8075C59.2334 11.8075 59.8472 11.8974 60.334 12.0773C60.8208 12.2572 61.1859 12.5271 61.4293 12.8869C61.6833 13.2362 61.8103 13.6806 61.8103 14.2204C61.8103 14.7495 61.6886 15.2099 61.4452 15.6014C61.2124 15.993 60.8473 16.2946 60.3499 16.5062C59.8525 16.7179 59.2122 16.8237 58.4291 16.8237H54.5717V8.31515H55.9686V11.8075H58.4926ZM60.4134 14.2997C60.4134 13.7812 60.2282 13.4319 59.8578 13.252C59.498 13.0615 58.99 12.9663 58.3339 12.9663H55.9686V15.6967H58.3656C58.9582 15.6967 59.4451 15.5908 59.826 15.3792C60.2176 15.1675 60.4134 14.8077 60.4134 14.2997ZM69.0798 9.48984H66.3018V16.8237H64.9208V9.48984H62.1745V8.31515H69.0798V9.48984ZM74.8039 8.15641C75.8516 8.15641 76.6929 8.52151 77.3279 9.25173C77.9734 9.98194 78.2962 11.0826 78.2962 12.5536C78.2962 13.5166 78.148 14.3315 77.8517 14.9982C77.566 15.6543 77.1585 16.1517 76.6294 16.4904C76.1108 16.8184 75.497 16.9825 74.788 16.9825C74.3541 16.9825 73.9678 16.9243 73.6292 16.8079C73.2905 16.6914 72.9995 16.5433 72.7561 16.3634C72.5233 16.1729 72.3222 15.9665 72.1529 15.7443H72.0576C72.0788 15.9242 72.0999 16.1517 72.1211 16.4269C72.1423 16.702 72.1529 16.9401 72.1529 17.1412V20.6335H70.7559V8.31515H71.8989L72.0894 9.47397H72.1529C72.3222 9.23056 72.5233 9.00832 72.7561 8.80725C72.9995 8.60617 73.2852 8.44743 73.6133 8.33102C73.9519 8.21461 74.3488 8.15641 74.8039 8.15641ZM74.5499 9.3311C73.9784 9.3311 73.518 9.44222 73.1688 9.66446C72.8196 9.87611 72.5656 10.1989 72.4068 10.6328C72.2481 11.0667 72.1634 11.617 72.1529 12.2837V12.5536C72.1529 13.252 72.2269 13.8447 72.3751 14.3315C72.5233 14.8183 72.772 15.1887 73.1212 15.4427C73.481 15.6967 73.9678 15.8237 74.5816 15.8237C75.1002 15.8237 75.5235 15.6808 75.8516 15.3951C76.1902 15.1093 76.4389 14.723 76.5976 14.2362C76.767 13.7388 76.8516 13.1727 76.8516 12.5377C76.8516 11.5641 76.6611 10.7862 76.2802 10.2042C75.9098 9.62212 75.333 9.3311 74.5499 9.3311Z" fill="#31DF96"/>
<path d="M11.9784 14.0967L3.23737 14.0967" stroke="#31DF96" stroke-width="1.29496" stroke-linecap="round" stroke-linejoin="round"/>
<path d="M17.4819 14.0967L15.2158 14.0967" stroke="#31DF96" stroke-width="1.29496" stroke-linecap="round" stroke-linejoin="round"/>
<path d="M13.597 15.7154C14.491 15.7154 15.2157 14.9907 15.2157 14.0967C15.2157 13.2027 14.491 12.478 13.597 12.478C12.703 12.478 11.9783 13.2027 11.9783 14.0967C11.9783 14.9907 12.703 15.7154 13.597 15.7154Z" stroke="#31DF96" stroke-width="1.29496" stroke-linecap="round" stroke-linejoin="round"/>
<path d="M6.79852 6.97441L3.23737 6.97437" stroke="#31DF96" stroke-width="1.29496" stroke-linecap="round" stroke-linejoin="round"/>
<path d="M17.482 6.97437L10.0359 6.97441" stroke="#31DF96" stroke-width="1.29496" stroke-linecap="round" stroke-linejoin="round"/>
<path d="M8.41723 8.593C9.31121 8.593 10.0359 7.86828 10.0359 6.9743C10.0359 6.08031 9.31121 5.35559 8.41723 5.35559C7.52324 5.35559 6.79852 6.08031 6.79852 6.9743C6.79852 7.86828 7.52324 8.593 8.41723 8.593Z" stroke="#31DF96" stroke-width="1.29496" stroke-linecap="round" stroke-linejoin="round"/>
</svg>
